<mxfile host="app.diagrams.net" agent="Mozilla/5.0 (Windows NT 10.0; Win64; x64) AppleWebKit/537.36 (KHTML, like Gecko) Chrome/134.0.0.0 Safari/537.36" version="26.1.1">
  <diagram name="Page-1" id="LLTTdCgbXIQJeg60DIWo">
    <mxGraphModel dx="1160" dy="721" grid="0" gridSize="10" guides="1" tooltips="1" connect="1" arrows="1" fold="1" page="0" pageScale="1" pageWidth="827" pageHeight="1169" math="0" shadow="0">
      <root>
        <mxCell id="0" />
        <mxCell id="1" parent="0" />
        <mxCell id="Q2kvJ_mDKJeGvRw_KFXL-3" value="" style="shape=image;verticalLabelPosition=bottom;labelBackgroundColor=default;verticalAlign=top;aspect=fixed;imageAspect=0;image=data:image/png,iVBORw0KGgoAAAANSUhEUgAAAh8AAAFNCAYAAACg8w2wAAAAAXNSR0IArs4c6QAAAARnQU1BAACxjwv8YQUAAAAJcEhZcwAADsMAAA7DAcdvqGQAAHmYSURBVHhe7d0JXBR1/wfwD+zCct8sKIgconjhgWepaaaWZlaaj/V0WU/pkx12WNnhUT3dPlnPU9np0/E3s6w0j8xM8z7wQhQUEUTkht1lWc5d+M9vZhYW2F0WgXUWvu/Xa3TmtyczOzPf+f6OcUpMTKxDFxEcHIyIiAhxiRBCpKWurg7Hjh0TlwjpvJzF/7sEJycncY4QQqSHjlGkq+hSwQchhBBCrj4KPgghhBBiVxR8EEIIIcSuKPgghBBCiF1R8EEIIYQQu2pT8MG6hWk0GpSWloolLbt06RL0er24RAghhJCu5oqDDxZAZGVlITU1FWVlZWJpy3JycpCcnIySkhKxhBBCCCFdSauDj9raWj7bcfLkST74qK6u5jMgtmKv12q1SElJQVpaGiorK8VHCCGEOLKM3V/j6693I0NcJsQSm4MPFjSUl5fjwoULOHXqFD/fFuz98vLycObMGeTn5/NBTJe353UkJLyOPeIiIeTqYcckltVVqVRQq9X8fE1NjfgoIaQtbAo+WHaCBQgsW8EChtZkOlqi0+mQnp6OzMxMfgdnQUlXlXEpTZwjhFwtBoMBBQUFOHr0KHbs2IGNGzdi06ZN2LVrF3/h1dWPU9ZEjbsX9947DlHiMiGWWA0+WLuOoqIiPtuRkZHBZzvaM/AwYjs7C25YNQyrymlNGxJCCGkv7JjHLoR2796N06dP88elqqoq/tjH2qsdP34ce/fu5cs74lhISFdh8cZyLCORm5vLpxzZzmdtR4uOjkZYWJi4ZN2BAwes9nZh9zbw8fHhbwLHJrlcLj7SdkqlEj169BCX2hGrLlm4XlxgZmLl0RcwVlziNX1O/NP4cfVd4hXCHryesBCm78DEP/0juKdgzdxZWBG7EkdfaPSOyFgzF7NWAE//uBp38W+UYfJcNHlPM9+pGeF7pLHPHX0Ac7k3TxIfafR9xb9l5sqjaPKVrD9GiMSxjAcLLthFlzXseDd+/Hh4enqKJe2HZVzaVUkSNmw6Af+x96LHpa+xJ1MsRyTG8lmKEiRt2IQTGrHYdzBunhGPAHHRqCRpAzbVP4nxxeCbZyDe5ImszccelcnrTT57gLbx6yO5snFWUyTi9/IfC+5rYvfXe1D/1eu/u0D4bmj2fRhrj5Grp1nmw9gW49y5c3x0z6pc7Bnhs89iDVpZBuT8+fOSz4KwACBhYRoXABzlDxpsWjlTfFDU/Dk/4mmswKz69h1j8QJX/uPT8dw8CxKE560WIorWS/sScxP2YKz4Pvznxa/HQlvbk2x/BQmvAEvqX78SM5O47zt3jdCQbOxY7lsC6/c0f7c9e7hwhwtU7qTAgzgY1saDVQHb0hOPXZixjLAjydzzNS71YNUibBrLnb4zsWfDbuzmTvDqeJNyzQls2t2kySgXROzJiMLN/HOEaWykBic22da4VMUFANwRqf61Nw/25b9P048xS8UFMF9fQo/6z74Zg325727SsDUgPIoLhTTIyG667UqQncEFPJHxFHhITKPgg53oWddZVsXC5q9mvSY7EBQXF/Pf5/Lly3zVjPRk4MD2JC5eeEDMPAjGvmCSYchYg1dWJGHmSmN2gonCXUueRjzWcydrsag9cV9p0o+mWQ7u81ZzAQT3eQtfb/kDk5JisbI+K8NwwdGP3PflApBX1rDdfSzGCtFHk2CGW2axx6TRJq8lxDGwYw7LfNhy3GPPYcclhxI51iTTEIVxYyMBTSYy/RuXD+ACA2ReahxUBMRjRpNsSNSAwdwJPxOXbAggNNz7jjU5+wfEx3PBD/sYm16MqJtN25EEIH6GGDwZo5eAcERxX1uTkc2FGyZKssHHHj3oiCQ1zTIf7CQvlcZULAvCvo9061aj0COW+6/ZSbhBxoHtXCwwkyULGosajUnx5rMHbRY/CaOb7WtiwJDW5KBizkzuueJsPfH7JmVm84tj7zQTPHEL67nSSc0/nBDJYz1ZWGNSWxUWFopzjsHXjzs7m/L144KH5ifmAG9/7l8VtC0lgAK8wT+zxSdyHxUV3qQaxxf811FpGwcL5vhGIbxZ1oI79rLopf71XEASz4KpDJgmP0qyM7jYJRIUe0hPo+DDy8sL/fv3R2RkJNzd3eHsbLU9aodibT38/f3Rr18/hIeHQyaTiY9Ii/EkvDAhwWw32exM1mrC+LjpNAsr6htUtLPYHiZXCU0kZUIIHyyLjwwX58zggheemeCJr3JpkgUixFGw9matOc5I9Zhkib932+sdWPuJr79mY3mwybQNhnXNPzsAfIxjC3/vJoGLCY2aJUYEUT24MMO06kWocvEdPMDy8ZBcNc2iCxZwsMZUcXFxfINPhUIhPmIf7ADg7e3NNwzt3bs3Py9pUXdhNWsXwTf0EIOMplUbrLFmffuJJpO9W2VyVwdWQouWcYGNIAqjhehDDLiEKpeZzVI8hDgGdsHj5+cnLrWMHR+7jIzdfMCxqVG7D1b1cZWJ2RuBkA2pr3rhq1x8EdU8bUIkwGJqg2VBWC8WNgUGBtolyndzc+OzHL169eL/d3FxER9xAGNf4IMJvtHo+oUwxh/hkXxdRYvZhhbZUl1iZPa5GeCHEbGWFREZq1YaywZL4phmRaJGT2qoeuGrXMxULxHiINjxh1142dLDjh2b2LGxayhBEncMY21G7jXTC6bDma2aKYFWxf3XJCsSJUQffNULX+VitsqGSIHVehW2EwYFBSEqKgoRERHw8PDgMxPtjWVb2FVETEwMn/FggY+jEk7I7PwvnP6NJ+gv+Yaatkhr0oBLbFdiJoARqnTMSNqOA00/LuMAWNtYq1UqRubasPDBBYtdTEIXk6oXocrFTFsRQhwEO96xY123bt3EEstY4MEukLoGDdQalmRo0mYk45LN1S5t0qQdB09sSNrsO9VXvXCvYVUuzdqaEKmwqVEHa//BdkhWDcLGymjPAIQFNGxHZu1MAgICHKwelY2r0bidh7GB6QPGhg9Rd+GBmVw8sGJWfTZE0Py1QqCShKaJB2O7EtMAhnXfbTS0SCNJWDHL9L334HU2Zkf801hi0iBjz+us7clcNI+L1mOhsVstk7EGc9mHzVzZZOyOKNzF/ri0L/Hl+ng8Tf1riYNjYwwNHTqUz4CYa/PGApQ+ffpg0KBBdq+SvnqExqGaE8kNxwQ2fkfDgCHtwtiepHn326ZdejOwe9MJaHwHN+pBIxB662gykrjgJBLx1L9WsmwKPhgWFLD2FyxQYI1AWdDQFmzHDgkJ4duWsP9ZytMxNW5MOmtFbLPBvMa+IFTHrF/Y8DzW4HT7pDsbZwq4QGWJyfPmGqMC1q5k5Uw+gKn/nMwHxHFBzOCChKMrYfK9FmI9K2vUfdYyNrjZj5O2Y5bx9cJIZubbp7AxP5KSuMDGXA8bQhwLOy6xCyw2gNjIkSP5jC+7+GLZWJYVGTNmDEaNGtWqtiGOz6Rrq7Gx6SY14u3V5oNV93CHnvrPZg1drVQB8WN+aDTQRLZcxUyuHosjnLaEjVKanZ3ND7bTs2dPdO/eXXzEuoMHD/L1pSzTwdqS2FOHjXAqGaYjnF5JFsJkhFObu6xcyWsIIZawtmOEMR3htBXHFpNRVVvzMmJfNmc+mmLpRxZ09O3bt1VDDIeGhvIpS3sHHqRjZKz5EqyhaX01EyGEXEUZyUKVzAA6JEnaFQcfDGv7wdKPvr5NGv1YwTIetrQmJw5AHL01/ukm1UeEEHI1ZOzm710TGX8VeuWQVmlT8EG6KNYA1aQtCFW3EEKuKnEckq+5yKPlG9YRKbjiNh+OqPO3+SCEODpq80G6Asp8EEKIREj3PlaEtC8KPgghhBBiVxR8EEIIIcSuKPgghBBCiF1R8EEIIYQQu6LggxBCCCF2RcEHIYQQQuyKgg9CCCGE2BUFH4QQQgixqy4TfLD70LDbZRNCiFSx45RMJhOXCOm8uszZmO3QCoVCXCKEEGny8PAQ5wjpvLpM8OHi4gI3NzdxiRBCpMnb25vPgBDSmXWJ4INVt7Ad2t3dXSwhhBBp8vf3pwsl0ul1ieCDBR3BwcFUl0oIkTxWPRwSEkLHK9Kpdfrgw9fXFxEREXQlQQhxCKzKxc/PD2FhYXwgQlUwpDNySkxM7HT3cGbVLCzbwdKXgYGBkMvl4iOEEOIY2O31y8vLUVRUhNLSUlRXV4uPEOL4nLgfeKcLPgghhBAiXV2mtwshhBBCpIGCD0IIIYTYFQUfhBBCCLErCj4IIYQQYlcUfBBCCCHErij4IIQQQohdUfBBCCGEELui4IMQQgghdkXBByGEEELsioIPQgghhNiVZIdX11fm48y2n7DpRAFqoMSE+f/EuBDxwc6ithqpxQX4pkSFY1U1KOC3hBMC5G4Y4ReIe4KDEOdqKT4sw+oz5/DfGmGpZ2Asfgr3Fhaaqs7HwpTL2MPm3btjc+9QhPIPNDibk4y7CoV7R9wSPhhLA8XPrcjB3HN5SBKWLJrZYyheCBAXHNIeLAkZh1cLxMUWzcRXF3/EvRHiIiGEEJtJL/OhL8WF3d/ig3dX4Wc+8OicKnV5eD7lNP6eU4DfKo2BB1OHEn0FfivKxt8v5CFDLG2mohS7TVbORY0aKeJ8MwYDNOIsKtTYXynOG9WqsaW44aZVmdVNn9AFpKfhuM2BByduGPpS4EEIIVdEQsFHNQpTduDbDz7ANzvToXUOw5iR0eJjnUtNeQ4eS8/Bdj2LOJwxwCcUr0b2wda4/tzUB5+Fd8cCLzcEWLmTdoZaxWcjAjy9MIoV6DU4qGMzVjg5QYFyrC0pEwsENepi/FAL9JS7iCXmKPB076E4Osj85NhZD07MA/i1ro6/k6hxuvjVTOGxmV/hYpPH6lKex3DhUUIIIa0koeCjAEnb9yJda4BH9ATc98Q/MLGHh/hYJ1KrxerMPBxjcYfMEy/2Goivorpjqq8nlAoFN3liaGAoHojphy29QhAuvKqJchzQVHH/O2NqcASm8KupGls1jYOKpvoFKXEzF9Ckq9U4K5ZxUQv+UpWiCt640Vd6ibCr6eJ5vqIKyn5RoCQHIYS0HwmdbcLRZ2AE+k57BE/cMw6RnmJxJ6NV5eF/fHWJHPf3iMXtnjK+3BwXmQxmcxEVamxnsYeTN4Z5u2GEjxCkpZeWmq+mqajgsyRyJx+M8OSijxoV/jLGKZVF+LmsDgovf0xylfNF2TWdtbKrNdKQckSoh7lxYB/+f4tqtmORkxOcnF7An/xyEY5+9zz+NqovQlh5SF/c8MB/safIzHrds0R4zrXv45RY1MiRN9GXPd73TRwRi0zVlKVj2zsP4KbBEdzns+8Qgr6j/obnvzsKcx9HCCFSIKlL3fAJczF7WDBcxeXOR48Dai1Y3AB3Je64wkxDHhdksGBC4e2HUdxbhPpy/7MHqlQ4UMFmLJFhpJ8XFKjBDyVqvj1NnkaNg3DCDX5+iJILwUeJQc//36VpU5H0G5u5BkPjlHyRRVmXkMr+j/OBt+oE3r+zP4bd9RbWHUoFH74UpGLH6scwbu43SGfLJtJSjgjPuaYf4viSxrJSEoX3nti/yeM1KNrzJqbG9MKNz67GbyUBGDNmDMYMUiD10Dq8ddcw9L/zS6RRAEIIkSDKs9uVFifEdhlj/QKa9TixTSX2a8q5/51ws6+/kBlx88G1CjZThX2l1huLevsH4w5uq5doVDhRW4atxdx7Ofthur8QeBBR5gUc52eGIDqSn7GspADn2f+Rxfj5oSlYuB644eWfcTK3AnV11Sj87RkhcNi0Bfuy2IxRDTLT+AgHMwf2MZPlqsHZU9ybcW6Mj4NpXybVn0txw7jF+AM34OXfMlCRdQJ79uzBnhNZqDjzIW7mnlOwfjG+OSg8nxBCpISCD3uqqEAa36vFGTEK0/xOOdakHkPCySZTak7zapRKNXaw7IaTF0b4GDefB0b78tEHDmrUyOPnGhTpTTIZXKBxHcu41KqxPU+FrdyVcYBvAIa3+EuowopzZr4jP6UL3XjbhR6Jn83DvHm2TC/gp6aphHZSwG2P/WzmxnjEWejBXE9bKmQnfnsXb3Cxwswv9mLLK7ciPtSNK3RB0PWT+WCArUN9o0xEKs7wH6JEvyhzrUqMj3MhUK9YYYZR/YqX73wDJzEIi79bh1emRIJ9kpFb37G44Ro2V9Dk8wghRBoo+LAzIQxwQeAV1i0VlWrALmYVnv4YaZKsiPLzRzybqdDgcEOvWZ62STXK0MAgxKAOm4qKkA5X3BXoKz4iqqqy3MW3w+UhL0ecbVEUInqKs+3s7CkhI6Ec3hcmp32z0jMbWmsMWvwdPnsgtnEWw1gtg54INq3BKUjFMSHCgdlmJdpMpPGPz0RcL76Ed+a7f+PDAiDu1Y+x/Hp/sVTAtwFZ8hRe5193Fwaaq8shhJCrrU7Kkn+sW7ZsGTd9VPdXnljmyMov191/4mjd0BPJdV/rxDJzis9zz+Gel3K57oJYJKiq23COvf5o3QuFNWKZka7u/1KEx57IrxLLBBdykvny+3OMH6qt+/K08NxGn1FyoW500zKT7/x/5WJZp3ex7quZXHTG7R4zv7oollm2+2Ul/1woF9RtLBELbbH75TouFqnDNSvrksSiRg6/UcfFDnWIe6PusFjEFda9ESd8tx6DxtSNGdMwDeohlAvfZWTd0xsv1VWLryKEECmhzIc9KRQQmg9U4dKVjONVrcKfrLkHPDHE04CCqiqTSYZIDyEVskejQhE/J6hlp6NGvHBToNBDZpR/AKL4OY6bAi306+gaas5CaGoRh2EtjiSWhYwzQq+YuMf+jhsbJyKsSk87bqWxaQ0ObPuqeWNT7jV/CWkUXDq5F3v3Nky5niMxZvYCvPXFTpxP34N3p4ebaUdCCCFXHwUf9uTshmixuiWxXCvMtEKRWi22rdDhjXOncVNq4+kxlVi9Ul6KYyY1LTlccMLEKhrGTQkNieMHB/swxLS1gMhgQBcc47RB6hmhvQcmon+L1RbnkSoGKvdNGd2Kk30NLqRs4udu7hvd/HWq3/B//xGijGtiIxsam17KBF8hFPcGDjcZ+Cw/5SD2fP9fPPvAeMR4UdhBCJEuCj7syhPDvIWTwkVVEY7U8rM20uOYtqUhTI20+EvduJ1Hq+irG2VO7Cn9pxfMNCw1P60+Jr6onWkz02xvbJp2XuwVczMSBvMzNmpobDokNoYvaaDC9tef5dt1ML26m7mpUWQA/MRZQghxNBR82FnfoGBhTI5aFZZcLIaaL7WB3jgwmLVhzgdjpY8wJvtvGhUXgjgaFS5lFIvzLYlEWHdxtp2lnt4hzAyIEqvJLNOmJgmZiJv7IrpVyYZC5PPBxwhENvo7apD25UO4+12xboUTFmjSStXbR6iC+e0vJNrcMJcQQqRFUsFHtU4DjcZkqjRevdeiqtykXFsp9hpxQG5KPKV050IIoKD0Im5JzcAWbQU0BuFhGGpwqca40ECrVgsnObkPhrjzRWY4Y5SvD//e0KlxiF9J1TDWxkifP8Y//Qk++cSWaTEmX9lAKS3IQkqicOI3P/ZGY8ZARTkkFk3zF7bZhJ+3pfDVXEJPlakY8yDrr/sMnprIHr8ZvUx79Ay+Dn/no481WHjfEmw7W4QysTttTVkRLiZtw5fP34Z7v+6gPsiEENIOJHVL/dPrl+PHZHHBGuUEzP/nODjuHfZrcCrnPBYUVsBqRYoiFD/GdUcUF2r9np6ExWUt3Dqf0RfixdOXuEDFCdPCB+KVwGqsSU3FiirufNbSbe9ri7H81EVshDue7d0Xf2NBTpe5pb7Rn3jBaSLegBIv787HK2PFYrMK8MN9IZj9NXDvunx8dUcLI6E2osWWhb0w7X2xbsWEcuTL+G7rePwRwL7HvViX/xVM31r15wuYMJGN82GJEn/7vyNYexfdkYYQIk1U7XJVuGBg9774PS4aL/p5op/cWchWME5yRLl5Y64yEj/2ChV6oujV2MtHKc6Y4N1CIwS5L0by7Urr8EephgtzWoH7NQhX+rVonnvpIurbcFgYe6ORsxCGA7FhCPZmvDF16TaseW42BvUQSnoMuhGPfbgTh3a9gutrinGZLw2Daa0L43/969iZ8jPennsjRtZ/rhJxI2/E3GVfYOf5dHxDgQchRMIklfkghBBCSOdHmQ9CCCGE2BUFH4QQQgixKwo+CCGEEGJXFHwQQgghxK4o+CCEEEKIXVHwQQghhBC7ouCDEEIIIXZFwQchhBBC7IqCD0IIIYTYFQUfhBBCCLErCj4IIYQQYlcUfBBCCCHErij4IIQQQohdSe+utvpSXDiyE3sSU3GppJK/tbuLRxh6j7kek4dHw0cuPI0QQgghjklSwYe+9Cy2ffUDEktYyNGcrNsE/OOBcQilAIQQQghxWBIKPrQ4+u372JRugCxgEG6ZOQlx3T3hWq3DxaM/Yd3vF1DOPct/zIN4fGK48BJCCCGEOBxpVbvoTmHz5nIk3D6ySXZDj7RfV2DNsUrAbRjufm4aYsRHCCGEEOJYpNXg1HMgps1uGngwckRFRguzlZXgQhBCCCGEOCiH6e0id6aOOYQQQkhn4DBn9PziAmFGGYwgYY4QQgghDsgxgg99OhIPCcFHj8EDEcLPEUIIIcQROUDwocPpDT8hke/qMho3DPcXigkhhBDikCQefOiRt/v/8HMyF3nIumHC7OsRQWN8EEIIIQ5NwsEHCzy+xOc7c2HgAo/Rd/8d42h0MUIIIcThSTT4qMblXcbAIwDD/vZ3TI70FB8jhBBCiCOT3r1d+MDjf1j9V0PGgwIPQgghpPOQWOaDAg9CCCGks5NQ5sMk8EAAEv52J8Z2cxEfa0oOd19PuIpLhBBCCHEcEgo+TmP98h+RLC5ZNwCzls5Ef3GJEEIIIY7DAcb5IIQQQkhnIsEGp4QQQgjpzCjzQQghhBC7ouCDEEIIIXZFwQchhBBC7IqCD0IIIYTYFQUfhBBCCLErCj4IIYQQYlcUfBBCCCHErij4IIQQQohdUfBBCCGEELui4IMQQgghdkXBByGEEELsioIPQgghhNgVBR+EEEIIsSsKPgghhBBiV9K6pb6+Evlph3Hw8Cmcu1yE8hpW6AKPoDD0HjoWE4ZHw0fOP9Px6auRvjcfG3arcC6rBqVVQrHCxwW+IW4YMKYb/nG9t1BoTlUFjv5+GRt3lSGrwAD+5QoZlBFeuH5aN9wwyBMepusqMR13va8WFxrIPeXoFuWLm2Z1x5gYVzRbvdmX8cLiPGSKi5aMfSIB/xwmLhhZ+MzGFJjzxgDcEi4sZf+ajGfXCSvDc2I0Pr7fv/l3Mr5vz1C8/VoYxJdeGeN7jeqJrxcENf8sU8bnjonEmnmBQpmN66fZd7X0OhdnBIS6Y8joYEye6I8eHo2vD0zXjy0iZ/fF69M9+Pn611pbb/Xfyw9PfhOD4WKxI6vNS4Hu0E5UHMmEvqgUxgOe28OrEDhUXGiqOg+6DWuhPZIBA79zKuAUPQieN94Mn3glnIRnNadXo/Kvn1D6RzJqVOVcgQxOyli4T74dPmMiuCVCCCOtzMfZzVi1bidOZBoDD6YG5UWZOPH7N/jg481I04nFjqy0GJ8+cwovf1GAxLSGwIOpKq1BQZoWf6ZViyXNaZIysXjBGaxYp0GaMfBgqgzcazVYuzIVX50Qy1qg1+lxKZn7PsuS8doWHfRiuRToduRhR6G40NFyq5Anzl5VNbUouaTDjnWZeO7RU/jPngpJbROHoi+A7uulyF32Pkq3JqHGJPCwpi57FwpfWgb1jlQx8GCqUHfhMMo+Wo78tadhEEsb0Z6G6tUXUfzDYTHwYAyoK0hF+bevI/+DXaimjUkIT1qZj9RN+CTZB6NHDEDv7gFw4y5D9ZUlyDn+O77//SzY7uw/5kE8PrFN17pXWTk2L03B/10A5IFemPWPCEyIdYe3Qni0SluF4jwdTmlcMGVY88yHhrv6fo67+i5lCwoFxsxQYtxAX3RjT9VW4NSpEhz4Sw2/OUMbZyLqsxCmV7QGaDPV+Hl1Jn7jvk/TLASv/krYzGMtMfuZ1tVfnYe6IDSPi0Bv7Y1/z2yyHozv2x6Zj9MZeOjNEuhseK/cLafx9HeVjbIJzdj6N1tYr/ryamSn5OOHbwpwvJiVyDD2iX7ctnTlHzfnyCdH8d5ebsY0I2NG18p85KD0nbegTef+Xpk/XMZPg8/YgXAJ8oXMWnpLnwLVC++jnO1gIdfA7+E74BHmDlRcRvkPn0K9P597wAOKfyxHUKP9swjafy9F6TkuLPHpB6/7/w7vfoFwri5GxY7/g2rDGT7wkU9/Ccpp4ZYzJ4R0EdLKfMTdjHmzxiE+Qgg8GLlbACJGz8KtQ934ZdW5C2C7v8M6X4Tf+RO9B/7+Yh/cMqAh8GAU3EL32ACzgQdL6W5YLQQeci44e/7fA/DIdCUGRCoQGMhNkX4YPz0ai98djIcGCy+xTgbvyEDc+3QPDHNhy1VITKrgH7nqegVjSh8gb3Me9nVktsvXFcHs/9o61PIFlhkMHR+nyz1cEZnQA4vejcOcaFZiwJ7Vl5FMV8ytot+1Vgg8fIbAd+mrUN4xBm6hLQQeHP1fm4TAw2ck/J+5F55c4MECBSf3MHje+wx841nFSTmqNu5syDhy6k7/Di0LPGSR8Hr8EfiywIM94BoI95seQcAUJf88/ZbNKO8M2VtC2shBGpzK4ePrI847OHUNhJoEVwTwZz3bFf6Zi9+ElAduX9AT8RZXiTPkLRxkG/HxQq/uwmxmjkSCD279DB/tAdSUYse+SrGsA12qsjmo9fSwQ8293BO33KdEKJsvLcGeEy2FRqSe/jRKN57jZnzgMfdBeClt3RlyoDuQzs+5TJkOj2bxvze8brxBOGgWHEI5fxHB6FFxeB+f2XC6djp8wpt+nhxuk2/i9lqO4Tgqkij6IMRBgo8K5ObwOWi4RYQhhJ9zUO7O8ORnSnHwkOV2Hc1V4eRRoR5ZPjwEkyI6ZtOFhwgZJikIGBWEES5A6k+5SOqoK/9wN/QQZ1ui5gJHJsDXJFXVkaIDMb6nMHsshY86iS3STqGS7SrhE+DZtxVRuOocqrLZTDgUfYP4oka0adBsOSxmyIpRk6Xi57gPRNUp1gpEBkVcn+ZVKqztyc9/wLi3V1/MEucI6bqkH3ywHjCJG7D9LLdzewzAzeNjxAccVB8lpvEnlFoc+G8yFq8uQo5p/tYiHS6kCXN9+vuIAUz70GeV4OBFNueMuGgLbRmuBs9AXD+O+4nqSvDnoY6ud6iFof4jyrHxpaO4655z2GNykVpRbu/sgwfCI4U53fly5AqzpAXVmeeFhqXchYrlljJm5OWJjXvD4CJmAgV66JN+QN5LK1CWbAw4AINKnFflo4a/LugGeWjjYKf24g4Uvbwc6r2X6xu71pWozTdYJaQLkWTwcW7LSqxcyaZ/460338KqzWe5q8AJuO+Rmejfnmfdq0HuiZuf7onxfLvAOlz88yKe+edxvLTqMo5mcwc5/klm5FUiW+wBFBzQTlfeej0Kki9jxVv5fJdPeUIYZvQXHmquCmsXsxOyuSkdR8RnmafGe2Zfx00vXQZ/sWmWM+LHBfFVD4d/yYWQEG9vMnjyv6kqFBi7uxRqcIIPxrTYfbBpZKhAN6H63i6UIeK2NtS13wnrYh6eNbct2GSu+2+bZGPT8nmYN8+W6SPsb4caCX2e8IuS+8lRufcHFLyyGDkL5uPyfG5a8BRy3/4S2rPq+mCgXkWFUBYe2tDlujoP2s9eRv5HO2DgfgpOMVPhIe4jtWrWsJhjfJ1p0MK63G58B3lv/IAqFbfl/BPgca34IAUfhEgz+Kip0ECjYZMWleJeWn5hLzZuPIDLrampkCi5fxAefncgXr7HF9HsxFdTiwv78rBi8Uk89OJ5bEupbh6E6OvEMgVCW9lWpDGTQGDuSSx8Kw8nS50QOqYH3nlUCV/xWZIRLTQ8RV4Rdid1RObBFX5NMuyFx9VIFedPHygR2+joUSk2h3GWfr5QOvR5yM0R51vSPQIRbb640KFW3E76LR+g+NsdqMkpBXyCIAvyhxPKUXvhMErfexEFW7ObByD1uAuBs1v5LrelR1V8jxnFHYsRuugWePay3r+qNu8IilmX2y3p3PsrIJv4CEJefQj+/W2t4COk85PkYbT/zKVYulSYXnzuKTw0ewxivGuhOvc7Vv9vN/IspgcciNwVfSf3wmurBuODJeGYOsCFb5BWlaXBV69bG3OjCnltGvvCCT5KFygDncWrO2cu8AjHcw8qEWK1epx1CU3Amm/MTS11yWTdNs29jpta7CrrhjETfLjvWoudmwvEQKBj1PKxTSWOHS4HPN3Qi6VcuCvkY/yHVkNVxP53arHHhOSxrrbmtgWb3giFWNPTPuTD8NAnn+ATW6alN7et2zRPA0OJOKsIg/vdixDywYfo/sZrCH3tDXR//00ETmF/oQH6DZ9CYy7NU1uEim/fQMF7G1DNxS1OYWPgt/RVBE3syR8wDRrjBzRVhqqt/0X+q1+gMp9lOwbA62nuc++I5xuA60sbqmwI6eokfw0nd/NG974Tcfe8aYiVcTt+7k5sPaoRH+0MZAiKDcHdz8Vj1Vs9MZ7PzNbh3Hfp+PG8yZV+qALdxNmysrZEX754cEU8Vq4cgs/eCscIn1rk7b2ERa9eRpZEgzrPkaGYygUC+jMF+Ku+h0F78UA3/oK0CrkF3H8laiSe5X53Q0Lx9+Gs/3E5Dh037W3jBiXfBcU+co0NgrophJ4vpAW+kAUIc/IbH0TAmBgW5zeQ+8Httjnw5KvOClB52qTSTy72YsrZhzK+jYYPXGc8CeXiu7nnN0ScdRVCw2+ZUqx/kxl7P51G+YZk1BpkkF3zIIKXPwrf2IYuM7Xi61jqku/ZTkgX5jgJZM+BGMjS75ysbMutBByZonsQHv5XNCbxqeca7Dhg0sNBrkCwWN2Skq61kBVpHUX3EDw0149vvKq/kIf//WmHLq1XQu6NiZNYQ9gabNutape/3ZKS4yruFAIMHeCLPkP9+DFAUncXgyXohcyIPWmRzgVCTGSER0M7BGKFJ5zdhbnaSku/50i4RglzhgIWcYpCTNp6+CfAZ9lrCL6pT5Nu69mouSTMyQP8hRn2OmP8oYiB55P/Qsi9w+HaqLWrHjWXheOWc2BA8x4xhHQxDlR7XQO92ODSzU063UHbndwfA4YIs7py02Zp3ly5sLl0uwthGpe0hecwJaaIl9Sp2ws7qFFn2wVfK3S71e0uwqF2HorEz1+4Dq3grkz5KhcXHwwfzJ1xevljLFs3F4tx8EIlctlJp4fCbl29dYkF4vDyLhjaX0K9kGymw/6PzDUsNTe9ii22tg1pgUuYUHFUm5tvoWGnHnXGB0zr0EJ6sTHBePJx0+AdaqavTM4pVPLfMxwuPY0NVGKgMDbUHjwRvn38zHS3TULlcTYjg2vPCL6IkK7MYYIPfdEJnOBT7m7o11sc/KAz0mtwzni12128hBMN4E7AfJxQo8VnK7KRYbGLbi3ryGIjb9x0K2tTwemwRp3twNjtlg069lf7tjp2dxd2g6LcIiSd4U48g/0wmD+veGPIKBaY1GD/cTFl7uxkl51GryrC16vV3Omb+z4JoZjEj3bqaLKQJXYPb5GsJ8IbdW+9ci69+3GneM7p46jQ8kWN6bhAgNvOLBBQ9DHtuh8Nj5HiSKQ7t6G82Wu10G3ZLmTeYkbDs/77esI9QbxiSPwdpdlNdz49qrdtERrPe1wLj/hGqRRCuiSJBx96VGqLkJW4AZ99+juyuJ1XFjEeY2Idd+c9ufE8Nv6lRmZxFbSmwUNVDXLS8vHF0nRsZle7Lh64flSTq93oMDwwWcjv6i/kY+kTp/HRr0U4l1uFYu79ijPV2PXrBbzxzAl8ZuON5RhjmwoWtHR0o84r19DtNvWsGAi0M90RNdhqG5rgXz+OSswQf/4z8/aphB4wMifhxNYhalGuLsPRX8/j5UUXsYdlt3z88NgDEuyFZJO+mPOemYal5qaP7kW8+Ko2i7wGnr25rWRIgubDzaisMAkGqi9C+8VaYRAy5Q3wSjBuaYFiwk3s5tBA6SGo3v0austCN9q6isvQff0u1In8C+Ex87pG1WCyhEnwYHGLIRNlH3wEzZlibmty2L1dtn6Eol9ZlQsX7NwxHe4UexAipRvL5WP3x6uw06QKtjEZvGMm4m+zRyOsVSMHSUv9TcCsUbjj9kW9MKuPmT9UX43j353Fe7+b6Y5rotkt7lu44VnhjhQ8/b9y7j1dcPvyeMwyXmlbuvV7E+1+S32zN0mrxLbXTuMrMTPULjeWY0y/p4sPFvwnFtfWn5O0+HHROfxkHAOk6feycf00+642vE4REYjHn4nAEH/r1wh0YzkztMdQ/OqnqOSrJxVwCvLmwtdq1BrvbOufAN8n55odet1w7GsUfLEftWbrbHzgOudxBI1vfnO4uuzfUfjOT6gxm5GUQTb+EQTP6d+BwSshjkPimQ8Z3LyDEDl4Am578HE8frdjBx5MVIIS1ye4Q6l0gY/pWGHc5Zayhycmzo7Eux/2Mx94MHJXDLmnP1a90RO3sffxaTgEyj3l6DHAH3MWxuE+m24s1yD4ulBM4E+4Hd+o88oZu912nIYqFyNvjBpnp+HUOZ6BCgy8RomHl3Db+F+RLQYexALvoQh8bRn8JsZB5sMFBkVFMBTpuKAjGm53PI6Q5Q9ZvOeLbOi9CHl5PrxGRMPJuOkVPpDFTYQfa4RqJvBgnMInI3j5c/Bhn2m8/4/MA87RI+DDGqFS4EFIPWndUp8QQgghnR5dVhFCCCHErij4IIQQQohdUbULcXy2NvpspnFjV0IIIfZBmQ9CCCGE2BVlPgghhBBiV5T5IIQQQohdUfBBCCGEELui4IMQQgghdkXBByGEEELsioIPQgghhNgVBR+EEEIIsSsKPgghhBBiVxR8EEIIIcSuJD7ImB55uz7DJ38ViMsDMGvpTPQXlxxabTVSiwvwTYkKx6pqUCBuBU+ZC5Qubhjp3w2LlF5CoTmGCuwryOFer8MZvR46VuYkR5TCE7cru2GGrwc8TUPLknQkXNKICw0UznLEuPnhzm6hmOTlChexvF5FDuaey0OSuGjJzB5D8UKAuGBk4TMbU+Dp3v1xl7uwlJF7GrMKqvj5AP9obInwa/6djO+rCMWPcd0RJRZfqT0Zx7CwlJvx6YmjUYFCYVMWP7Mca1JTsUL4ypaZe2+b1g/H4veqRXFZETbkF2NLRRUyDLV8Kdum8R4BuCVE2Wib1q9ba+utfnv7YuWgGIzliky3iS3ilXFY3c1DXHJ8ddmbUfDar9zRSOD28CoEDhUX6uVA89orKMsWF80Kh9eSl+DbXVxsojbvCDRrt6IiIwd1bHUrfOAyaAK8b54Edwu3/yfEUUk686HP24+Ne42BRydSU4y3U07j7zkF+K2yIfBgdIYaZFRqsVZn+WCv1mThvtMpeLxAgyPGwIOp03Ov1WBFVireV4tlLaiq1eNMeRFeTj+Dx/N0qBHLpaBElYdfK8UF0pihDD+dT8b09Gx8WFZRH3gwbJseKSvgtmkafqgQC8mV0Wej9Nst9YFHx9CjetcHyFv2BcpTxcCDqSpFzeENKFn+KlSntWIhIZ2DhDMf+dj76WfYkQt06xaI3FwWhHSGzEc5vj97Fm9X1kEh98Kj4T0wzcsdvjLh0Up9FQordDhS44rbA5pnPtTc1fKd3NUyH5I5KXBbcDCm+vginF0Y6SuRWFqC7SoNgkMHN85E1F9lN1zRcmcwaHQafJ19Ef/jvg93qdUoC8GrvxI281hLzH6mdfVX2S6uiKmpBoJ7Y133JuvBYhbiyrRX5qOtV/w2ZSaYWh3WpJ3DCn6bAZ4KX8wPDMJwHzduTQMaLng9VabClhI9ru/Vt3lWqZWZD3NsWmedQPXvb6Lwp0wgMhLyzEw+CGkp82H+ccvqUtYi9/1dqIMMsmvuR8AdQ+DKbTPD5eNQf/o/VOYbAI9h8Fv+D3h6iy8ixMFJNvORv3cDduUaIOs2HjOuVYqlnUBZMb7nTxoeeCamN+7ybQg8GDe5Aj28A8wGHqjV4JscIfBQuAZiVd/+eKmbEkM9FVAquMnTF1O7ReG9fvFY5Ce8xDoZfD0D8Fh0OG50YstV2KmRyKWyexDmcAfg9KJc/NGxl50OphYpORli4CHHhNDe+D0uBncF+yKW/Qa4KdY3CLeHxeLz/r1xu0J4FbkCOb9DtYELPGSR8L53Mre2O0IRyjaxwIO7lhj5IILvHc4FHuyT5JCFDUfgM3dDwY4P5YnQ7mz9fZsJkSppBh+qQ9iyKxcGWTeMu2UUQsTiTqG6Ghf5GRcEu/EzNssrzMX/uIsgLvTAP3v2wPBmjSGMnOHSmi3r4on+rsLs6Uqp1HO4YJyfJ3dZqMXPxVT3Uk9fgu9KqvlZpX9PvBHiBYs/I2cZ3CRdsSplRdCu3QC9QQb5zXfD20I7jTbLOYLydDYTA+/pQ7nLgSa8R8PrBiGzZDh0HLQnkM5CgocmHY5v3Y4sbqfvNu4WXBPayRpayeQQakO0+LO4NS0sqnG4tJyfU3iF4FaPjtl0fbgrZ6kICgjENCfgYEEujjQ0aejStGoVNvO1LR54SOnbvDEuaReGA+tQeo6L9CNvhv+kcPCJwQ6gP5citCcJHwBFEF/UiCFtK8oOiw24ijNQoxJmCXF0kgs+dMc3YHMat9Mrx+CWa0I7KNV5FXkH4V7+/F6Ljdmncd/FIi7Q4h9pgQ6pYo3ICG8ftGfVb025Ctv5Rm7OGOohoV4K8gBM9+N+orVq/KqiuhcmuaxMmPHwx7hWZs6IjbQHoPqW9e8Kh9fdk+DagQehmjyxe0xYCMTko0CvRsUPryJ/xQZUqYwHiGLoKfggnYS0GpzqTuGH//6EM5VKXDfvIYw3Zj1Or8fyH5O5mc7R1bamuhjvpWXhe7246p2cMcRbibkhSozwkJu/mq3IwUPn8nCMuwb7W8QQPOsvltvKXOPPWj1ytQVYcSkPO7njm8KrB7bEBKNRcxGbutpaaJxY/5lWNGn8WN8o0tiQUZeN2ecLkO6ixJp+4ejDntRRDU5tYaXBqTVmuyI30XKD0Ap8fzYFb1eybsgx2B7BmpcK6l/biOVuzC272g1O9Uj8bAE+SxQXrQrElGdfx+0x4mKbaKH7fCnUieWQT38JymnGrMcxFM//lK/2aE1XWyefIDh3j4P7+BvgPTi02dVe+er5rJYZ8hlLEHKTULdTm7cXJe9/JwYdCrhMHQunLX+AVba1tjErIVIlocyHDqe2bOECD8B/9DSM6WzVLSZcXAPxbN/++CLUF0OcuUNbXS2Ol+bh8bQkTExNx0+l1Wa7vArX/q4Ib9MVrwYLTx5DAptOJeHmTBZ4OCPapwd+jGoSeEiBp9DwFDVF2KLp6nUvdTCI8Wq4S2evcMlDXo4426IoRPQUZ9vIkPg9NFzgAeUU+E5pe3VLXWkRDKl7UbZqGfLe+R3V1hJ4ejUqt7Iut98KgYf/APgsfgfKW66Ba7j4HEI6CclkPipSf8F/vz+Jcv/RmPvIZESYxh6dLPPRmAH52mL8mJeP78trxDE7nDEiJBYfhHo2ZEHqMxBtzXw4QymXwZP73Bx9Laq45RifMKzsGYzu5kLRq9XV1uSKWluchinZWsAjDD/FhiC0ozIfku9q2/BZ/YL74JvunmJ5U8V4/eRFrLeU+bC23rpyV1tdEoqXf4TKUiU8nl0C/2jTg1BLmQ8z9BXQ52SiYtdalO7P54tkU55FyG3R9UGNMfMhu3Y6XDN/R8Vlbvtw20025h4EzhkGF/4rpED11Pso52IiynyQzkIamY+KVGz7lQs84I/Rt17fOPDo9GQI8VZiQexA/N47An9zZYelWhzOz8DqMpMrfYUCkfxMHTSGtrR/8MYL/Qfix/6D8WfvcEyT1SK99BJmpeUgXaKJBW//UNzPRWFV5YXYWj+iWlfkhu5ie+AzVdTvoX3pULH+Wy7wYAHC/fBrFHhcIbk75BF94X3vywgYJwSlhj2HG/VYcZIJ/VsM+34VAg+ffvB6cjlC7jYGHkwFavm25t0h70SjDpCuTRrBx4XTOMnvXCocWP0vLF++vPHEZz2YZPxoLPt4N4Rric7DzT0Iz/aJwt38VqnGDyUmoxo6u6KbeDA6XF7WLiORurkrsai7L9/7pqoyD/8ulOgJzdkbtwSyg3c11hSrJTUKq305o4exNxJ3GZwizJF2cRbl+4WGP4ZtbyNn/nxcbjQJWQ+m8lNj2WvQ2FQ1JId73EBhtryCH9PDSB7aQ5yTwTnhbgS/9jh8+/g1ru7JzhV/80GQtTbjSYhESajNB+E5+2GYOL5YSaMMhzeGeQubq0RdiJ3tdAb2DgjBXWLdzsHiIu4QLE2hgUF8t1v2t//VhZt+xPj4gG/eoC/Gb524DUz6Ty9g3rx5Nk2rj4kvkjBDldhVTSZrFFi49OojHoS7wWPaGLg26vIiqD51HHx/l/AouFqqaSPEwUgj+Og/E0uXLrU8zRogPpG1+RDL/jmucw0+ZlRbimRhOA/EuzVuYDGUOwHzDfrrtFh24TLYMATm1aLG5vOSF2aFeIO/npZyo05jt1s26FhJ1819wCsYd/M/i1p8eykDezrlqlDhUkaxON+SSIS1ywBgQxG4ahXCLE4P1w/mxtpdCGWWbxLXiD4bZTuE/mJO1yY0HhQuegjc+aqUbOi2HROCDFPaRJRuF7rQuIwe3rg7LiEOjDIfdnY4Nx1rCjVIq6qCxvRIY6jBJW0B3j13AZ+zhIeTJ27zb9J40bM7nvcX6l6qKvNx/5kzeC23CKcrqlDAvV+BToMtuRl48kwS3rHxxnKMsU0FO6H9UFCIPL5UapwxXAy+DlaI0VmX5Ibp4aEYyi6fDRosTDmNdwu1uKQ3/pgM0FTUcKdvR+aP8U9/gk8+sWVajMmh4sskpq5Cg+oTG1H08htCF1yfkfCb3r9JD5pIeN8Uz8/VHfoChV8fQXUFOwDoYbh8BMXvrkYV+7krp8DnOjOjkBHioCR+S31RJ+rtYtOYEk7ueDSqF+Z6m+lOWVuNg9nn8JSqGqxdvCXNxpVooedJXsFZ3J6r497TFY/2GoC5xvSuTeN8dMAt9c32oqjET+fO4F/G289IrLeLVebe26b1wzHzWrU2G4szCnDY6t5LvV3aT0u9XRoeN8s/Ab5PzoWX2Vvja1H+9etQ7bcQMvr0g8/jj8Cbv3skIZ0DZT7sLNZXiTle7oiSu0BpegnkJEeUqyfuVEbi5/59zQcejLMrRkX0w/bYCCxg7yNr2IQKZzn6efjj6Yg4PNHKATtCg0JwB/9WUm7U6YZJgWIVURfn5x2Oj/v3w6eh/hjnKkdA/W+JdaV2x40Bofggtg/uaFxzR+yJ2xdlcWPgNX8Zur3xkIXAg/GGx73LETx/BtyifeozI04+3eEy8UG+ESoFHqSzcYzMByGESFo1DBoDnH3dm1SrEELMoeCDEEIIIXZF1S6EEEIIsSvKfBDHZ2Oj2OauYMh4QgghbUaZD0IIIYTYFWU+CCGEEGJXlPkghBBCiF1R8EEIIYQQu6LggxBCCCF2RcEHIYQQQuyKgg9CCCGE2BUFH4QQQgixKwo+CCGEEGJXFHwQQgghxK4o+CCEEEKIXUlrhNPT67H8x2RxwYIBs7B0Zn9xgRBCCCGOhjIfhBBCCLEraWY+lBMw/5/jECIWE0IIIaTzoMwHIYQQQuyKgg9CCCGE2BUFH4QQQgixKwo+CCGEEGJX0u9qK3ODt1cgQgcMxrgRgxHuIxcfIIQQQogjkn7mw1AJreYy0vZtxhcffIBfTuvEBwghhBDiiKSV+TCjWleEvPST+GvbXlwo5wpksbjlybswxFN4nBBCCCGORfKZD1fPIETET8Q9/5iMHqzAkIYTyRr+MUIIIYQ4HsdpcOofjV5KYbayqlKYIYQQQojDcaDeLlVc0CHMyZxlwgwhhBBCHI7DBB+6U4dwnK9t6YGB/YP4MkIIIYQ4Hok3OK2GrigPKfs24/cTBaiBDN0m/AMPjAsFdbglhBBCHJOkgo/83R9j1c4CcakpF4SNuQt3TowEdXQhhBBCHJfEgw8XePgqEUYDjBFCCCGdhqSCD32lFlXO3vB0FQsIIYQQ0ulIfpAxQgghhHQuDtTVlhBCCCGdAQUfhBBCCLErCj4IIYQQYlcUfBBCCCHErij4IIQQQohdUfBBCCGEELui4IMQQgghdkXBByGEEELsioIPQgghhNgVBR+EEEIIsSsKPgghhBBiVxR8EEIIIQ6hCLtWPIJ58+bh1S05YpkN9ClYu2ge97onsfqYTiy8uqR7Yzl9KbLPnMDR46eQnqeCttIglCsnYP4/xyFEWHJAxfjinkwcFJdMeQYq0GNEMGZMDkKvIJlY2kRiOh56X83N+GH+NzFIEEpbR1eIjx/LwrEaYXHQw4Pw6Fi5sGAq+zKWL85DNpv3DMAT/43CgGZPM/49Ctz2xgBMDReLmfrvao2Z112Rcmx5KQU/XwTCZ/fF0ukeYnljl39NxrJ1VcCYSHw2L1AsNSm3ysw6N11H1vQMxbLXwhAmLjZVlVOMHdsKcehkBfKLa8H/2hUydI/1wcgbumFigju3pjg2bX/z2+ToJ0exaq8wb4tRTyTgwWHiggPSq7TYuyMXOw+UI6vAAGHrOsFHKUdIDy+MuyUaE6P5QrP412+9jK2HK5DLbRM9Vyb3lKNblC9uuj0Uo2PdhG3CcL+DF7jfQaa4WI/bhsoIL1w/LQxTjNuwKW6b3mXDfjKH25a3mO4nlj6zibHcdvynyXY8wv0O3hN/B3H39MeSyW7Cgolsbn94VtxP1pjsJ1fC+F49ZsbhrVs9xVLzjM+N5Pbh1437sE3rh9PouxbjY24f2CMuNWDb3w29Rwfi5vFB6G3mOGu6fmxRv37rv6cfnuT2zeH8o00Zv5eZ7WkD7f6P8NxXJ2FQTsGzS29HjJnDdnN6pP+0HG9vK4Bs0H1465Fr4M2Vlq+eD9Uh4Rktkc9YgpCbuotL7UOSmQ9d5m588957+OLnnTiRWdQQeHRyuuIqpG7NxlvPJuOTPRX8wa4j6FNKcVIMPJiTR0vQYiysK8GWPyvFBdJu9NVIWpOMp57LxM9/6pBjDDyYKgNyklX4eeUZfJsolhGbaLgTwcKnz+HTDVqk1QceTB1KC2qQdlSFcyViUTO1yNpxVnj9Vh0uiYEHo9fpcSm5GJ++ch7bWow4Odw2LEjTYC23DZ/+vBgasVgqUn/KRVJHHWiauJQvheMH2/4VSNyQjWVPnsSy9RrJbROLdEn4+Wcu8IAPJtx1i42BByfnT6z7owCQ9cbs2ULgIQWSy3xUpG7Axz+egJY7Arso+2PM+GswKCIIvp6u4jMcXUPmo9GVpV6PwoxibP48G/v4bJoLblw6ADN7NYkPbbrytaaWuwI+zl8Bxw7xQs7xMuhcfPDgf2IxqulFSf1VvQuUoTUogBIvvNMDUeLDAlsyH23I0tisnTIfLWQoWtSqv7ma2xZnuG0hhBuyQA9MmBqChIGeCOB+7tUlOqSlqnH4LzX85gwVfis2vb+VbdKIbevM4WTnYMmSXJznAuyAIaGYd6cSvbu5iFkHA7TF1cjNUkPj2w3Dm2U+uMDj1xS8tK5SyHRw22Qyt01GcNskkNsmVdw2OXWyCHv+qMGIl/o3XLnWZyFMr2hrUV5Qhj1rL+CrI2wbO3NXyQO5q+QmZw1um7Z8xWyG2c9smfHKPjjUBaq8GgydPwgLr238ndoz81GyIwWP/q/cpvc69vlRvPtX82yNqfrvxu2rb3P7qvk/uyHz0ei9qmqQk1WCrf+7jB1Zwqmv1+w4LJnuCcvn8nJs5PaTtdx+0igj05RN2/FKMx96pKxdjJU7S+Fz7QIsuzce1nNIRqyaZgm+O8d995kvYfHkhuxFrbYEtSYXoc1dQulbH6NCI4Ni7tsIGmnbJ9pKWpkPfTr+/JUFHjJ0G30fnvjnLIzr270TBR5WyOUIjg3B/S9GYpQPK6jB9h2q9s9+6FU4wafaPJBwTwj431NNKY6fsPZJnrh+ErfD5RXgt312ukzqArR7MvGZGHh0mxyFN9/ti79NDkCvbgoEBCoQGhuAsdOj8fS7g3D3QP5pxAZp+4v4wAN9umPpU2EYWB94MDJ4B7qj9xBzgQensADf/CwEHj7xYXiN2yZ3c9ukN7dNArlt0p3bJlNm9cZrq/piaqjwEsuc4aH0wZRHYnAL/9xaHDhRyj8iBZ7XBmMCt/8f/iUX6WJZRwjwFY/f+roWj2eG+rRfB1G4cNswBA/+awCeHCNUuZz/OQu7CvlZydKnb8QaLvCAbBBuu83WwINV06zDunPcSlXegNnXN642cfYOgDzA8uSUeQyVLC3kMxaeCe0beDCSCj5UR/5CIhcgyyIm4Y7JkTav4E7FJxDjr3PhZw2XKpHPz7Uf/Qk1jrADc08fxAX7YOAo4SdwMllj9cDgN8wffbj/j+0s5GJp0nZa7Nio5atYZP3C8Pg9AfCzeOnFXXmYbSxAzFGrxMu5YFcEC3M2qkXS5lycZi/39MH980IRYXGbOLPrBdvIvRHTS5jVc/t0rjB79cl8Mfxabv/PK8LupFqxsAPlViFPnLXOGZ7u4myHccXwu8Mwgh1qa8rx50HuxCNZOfh9zTYUcMeB3rNn4xpb6010x/DjD1dQTcPLQdmWQ2C5IZcpN8C9Va+1jYSCDw3OpV7i/peh74gE+AuFXZKbe0dtllqkJpfyJ7zwkf4I4zZ/3FA/PsgzHFLjpLXoIyAIY1ge8WwefrPHgaqzO6/CQf5I7Iwx05QI4gtJe3D3EPef4yU42KpEQylOHBR+26GTQsUMZDvrrkA3cVYKBlwbhFDuuLB9Yz467OI/1A2R4qx1VdDw7XBc4OfLF3Qsz0BcO1KYzeSOixabAF1lRbu+w6Zs7swYeSvuHG/rkUKPlF+/A4upfK69B9P7ti56MBzbBh1r0+QxDt7XdczRSULBRzays9j/SoSEdECY5UAqK8STu6cM7VoLr9eIB1cFhg8R3lnezwcD+ei/FClnrAUVcgwbH8AFKrXYu6u45QaqxKq8c1oUsxlPPyTES2g37ATirgsWTna6UnzwVDK+OFhh0uDUirxynOd/2M4YHNeOzfJKi3DwuDDbv5eXMCMV0cGYwlKaZwvx1wWhqMPU1nFHD5G+GB8/cBR3PZWFNLGItccpt+uBxRnhPcSePmm6FnsNXRXa/Vi37hy3ZpS4Yfb1sLW/yZVW0wiKUL5DyHrIxl/TIVkPRjpHvfxiFPAz/vA0pGD3j59j5TuvY/ny5fz0+jsf4qutSSis5p/UeXEHqj/+FNLGsQl+7ZoB0p9RI5Ht3KG+6Gts6CT3x2A++q9F4jHrVS/y+CCMD+UOEUdysb1VByo1Vt1zFA+Zm166jMvis9pL9roU85/FTS12p72Yh2VmXsdPn/DhQrvIzxFb/vd05648TbAGpWY++4tmvV2srFOxQbM0ZGPTcja+gC3TR9jfDicfeUR3LHrUDwEsqK6qwo4Pz+Ch+afx0a/FuFRuJcDOrRBPQK4IbFsbS5EB2swifPqvizjA73fBmH2dtfozNd7jtt9d5iZuP7HcuaYKaxebeQ0/peOI+Czz3DBmgg93aVGDjZsKO+aiwkMmnPwuVdVXI+vPlApd/QuLceC0UNZAAWWL7WnaRzelGHxw36X9mptY2Y5iI1jb6HDsxx9wkvtiPhPuwi22d2+5smoaUd3p36FljYBkQ+A90bac1ZWQTvBRVSlenZzBxlXrsPP0ZWhqXODr6wtfDxfUlBch8/DP+Oj99Tht1+jYTqpqkHX0Ev6z5KIYIARj5vXN+9+3RdpJNX9wUY7yM+mx4oxBXJDDml7pDqpNrkLM8cYY1vCU21N37e6AxrBdiN54pOPOkJ26ilGfh1xbx0LqHoGIdmno5Qz/kTFYuaIX7rvWDZ5cEKLXVWLvukw8N+8EFq/KRYrKTBDCbRPhN+3WhpOfaSBwAvNevohd3N/v2U+JpS9HIFaCSV3PkUF8w1P9kSLs7Yi6F+43HiDOCmpx5phwLGLze44YjyUGlPNNL5wh69rJb54+5Vd8J9Sb4J7pfa30xmnsyqppjIpQtmW3kPW4YRI82mV/NE86wYdWK/a3lsE7Zgxmz38OL76wCAsXLsTCRS9g8SPT0Ied98qT8fOvJ1DBP9exHXzf5Gr1H0l4dWUBkriLa1n3ADzBHaha10CoJWqc2McOuC4YOqhxKCwf7Ifh7CpRxz2n2VVIY0HXBmEo91zd7rxWHKhYt9AEfGZuaku3VgtYt1Gzn8VNy2a30HKTdbU18zp+amOXQ7Oa9gAYFmPymX1xW0+xvBkr6/SbSIwSn3XVyYfhoU8+wSe2TEtvttBt8srI/X0xZX5/fPZxfyx7MBADQ5y40jpc3JeDVxelYnOWpSxIJQpsaxlplmegC5RKWX0PG78BIXhqQQ/0abENCeuimYA15iaLXUoZ1m3TzGv4yYauu3J/jJvEDgDl+Pk3dQdeVNTCwN5cr8FRVv3b0w292LGEu+g5w39oNVTsmMKVWRhi0UFY2Y7cvjlWfJZV+nRsXLMTpfDAsL/dhnhbg4D6appwTL3H9moao/qsB2LgOTYabI/pKNIJPry9IbQx6ospd09E3xC3RpGea/AwzJjUh/9RGs6m4XzH7SFXh4szAmK9MW1BHN77VxQGtHdjt9MqHGKXGv7eiPGvQkmxyaRxRwSr9+UODoe4KxKrPAMx+Ubu6FBTju27tWIhaS1liHhqym1IRZMOonBD7/GRWPzuILy7wA9h7DxbVYH/+0820kyPI0oFevAzBmjL+JkroMD0Z+KxcsVgfPZBL9wSzYX9yfl4dXE6jkinl20zMZNCMYxbL6U7C4XjRLtyRxgfRFcJQd1ZNV+9FjkyApPiuWXuoueoaXuz7m5QirMdLTtXvIztoZDQqNl6ZP+2Btv4ccFm4LZhttabaJG41lhNMws3hrf26rUIZdv28VkPp3FT4dXBreClE3xwBwjhcFyFagtpDfdu3SFcexZB1X7V71cNG2Ss/mr1yyF4a0lv3DrKs0Ma+KQY05yqEny4MBnPNZpSsC6Zfxp0x0tb6PPvjJgJwYjl5gq2FyG5swWBdtKtmxh8XNQhs90P9sQ8GbqPisEbC1nDaU5eMQ6c5R8QBLqKJ6AanLvQ9tE4WeZlzkOhQuPXUjU+/UnCVZU+QbhhHHc6qCnFjn0dOxJpMn8scsHQ/t4YmsBOrLXYeYBbNzaMA9K+9MhIFyr75T3dW50l6DBFe/H9Fr7eBLfeOd7mnnD6lM34no1V0cpqGqO6lD+gZWOCIBye4/t3aNaDkU7wEaJENz7XVoBCS+n8ulruZ8rI4OzYeTk70+LMcUsp5iYK1ThxXpy3JDgY41guV1eCPYeMjRdIa8gH+GIQP6fFvg4+2F89Ouz/yFzDUnPTq2jNfbLaQh7vg6H8XC10phc6nr6I7yfMpm4vaJwVuVLhIZgm1nvodhd1QFahvTgjfhzrdsv+9kJcFArbiSv8+TNoLcor1TjGqn9D/TEkmlvlQ/35sTb0h0pwKLNKGAOFC8zt0t40Ox9bjwqzQ7n9sQOu+a6AFvvXrQOLAcKn3oMm44JZdqXVNPW00O3cw2c9MGQSvOwQiUkn+EBPRPZiEYUGqalZZiPg/HMpwgBX/jGI7OCUUKdyXoUjfF2qH+avNsm2NJqM7QtqcORYS9Upxm63bNCxYqHLKGkdzyCMnyjsfmlr07HFYvsDR5aFLOstmBvIeiLcTpee+rNlSOXnFAhrdJZTYPQ41vODk1eIFV8UQWUxAKlld0SwgRzX3qwUTqZ2yCq0ibHbbV4RdpwUitqHHG78oGE1UB0rxVEuAAsd5YcYVuTpj+GD2UOlOMLqCxi5U8cHAlVl+OUz8aZ8ocGYNlIioUfiWvwg1Jtg1o3hNq6HK62maVB34Q+UJbH1r4TnlJF2aXMjoeDDHQOGD+HHtVAd+B4bklRo6FWrR+nZzVi3m3XGlSF27Kh2bZjW2aUfUwsBQrw34iz+mj0waKRQFVB8RI0Mfs4yY7dbnC1voYcMMc8ZA26PEAayqqnEz8tO4T/ri5Gl1ouBdy0q1FUolfLAiy3qiznvmWlYam766F6w6v+2U+GXVZexK7kMxcU1Yg86QZW2Aud2XcDL7xTxA2rJ+wVhdJMDiee1PXCvmP0o3XsRTz2fim9/VyOzuIp7vyrkpJVg24/n8NL8FGyxtVFqdAhuE2/Ck7ohV8JVlcZut7VIPWvTyCitlsYdWwrhgmuGGE+QcgxOEAK+w/uEqmG5rOMS/sJvIBOvPHcW69hwAS5umPNYuDR6IbEbx32fiHL44Np7psPmccFy/sQ3V1BN00AL3W9/CF2Ne18Pr47rXduIxG4sp0fe7i/x+c5cfkXI3LzhpXBGLRelCne2dUHYmLtw50RHHnrdwo3lbFV/YzFrTG8opsX6p87hN+5oa/HW+Ubns/D88kLuG7pg2vJ43OpqvLGc+ZuYFf2egsXfGM+O1m4sZ01LNz+zlWPeUl+fX4Av3riExBbSR/W/lfp1an6bCLryjeUs3Uq9MUWsEs8vtNADhTvebPvgPL7irwQtaXJjsBZu8qY/nYFH3ywBa3M6oumN3OpvSGaNmfet/0zrLN1S3+xN0vQqrH70ArYbq4fa4cZyTP3N4JhQJV59p4eQ+WB0hVj5WBYOi6PiN/teNq0fTqPv2vLvQB7ohb8/0QtTolq6zrfHjeUabnvvMewhvPLQMBvvPqvF/o+ew1cnDQif/jIW32xrtsRE5kbkvbmFO+d6wP2xtxHQ3z6RmIQyH4wcoeMewOP3TEb/MG+41Gih0WigNSgQFDkCt81/Cvc7dOBxFVxQ4xjfhsYDA1r6UfXywSB+5dbg5OmWL7mN3W7JlZOHKDHv3UFYtkCJQbEu8DH2z+R4BioQd40S9y7pj7tbG6R2WZ4YNsMfw7h1adrdlVH4uKDHAH/MWdgPq5ZY6fqq8MKURQPxwXPdMXGAAgEmBxz2HrEJSjy8hDtpWQzqmpP374bb+B5l3BX+zsKOG8q8req73Xac+ioXI5NhzjuasP0Cud9AHFa928eGwMM+9Nm/YQ1fbzIId8yxNfAwqaZRTsFdNlfTmNJBt22bkPWImQYfOwUejORuqU8IIYR0HTn4/Y3XsD6z+W3vrdIl4etlH2JfqQ+uXbAM97a+lelVJbHMByGEENJ1aPf/gl8yDax7C+6xvXsL0rf9wAUegMewv+E2Bws8GAo+CCGEkKtBm4i1/G3vlZhy142wdVywK62mkRKqdiES0dAQt7WuqOEuIcRGtjXiNadpY1dCjCjzQQghhBC7oswHIYQQQuyKMh+EEEIIsSsKPgghhBBiVxR8EEIIIcSuKPgghBBCiF1R8EEIIYQQu6LggxBCCCF2RcEHIYQQQuyKgg9CCCGE2BUFH4QQQkhHydmCV+fNwws/pYsFhJHOCKen12P5j8niQguUEzD/n+MQIi46lmJ8OP8idolLDZzg5e+K6KHBmH19IPoEysTyJo6l445PNdyMLxatisEIobR1dEVY8WwWDhqExRH3xWPRaDN3NMrJwbOv5CGDzXv446W3ozCo2dOMf48Cf1/SH7ea3pSx/rtaY+Z1V+DS1tN4akMVek7vg3enWb/Do/G5UTPi8PZNHlxJOX55LRX/ly08blnT72ppWzrDL0iB3sMDccsYC9vSpnVjYmRP/DA30Mbtb2WbOAzL9/rxDFSgx4hgzJgchF5BFvaTxHQ89L6am/HD/G9ikCCUto6uEB8/loVjNcLioIcH4dGx5u78VY4tL6Xg54ts3hnXLRqEu+ObX9cd/eQoVu0Fwmf3xdLp7Hcnqv+u1ihw2xsDMDVcXLxiDd+12fcwcfnXZCxbVwWMicRn87jfnai+3Cpz69zWezdZ315VOcXYsa0Qh05WIL+4FvwhTCFD91gfjLyhGyYmuHNrimn4PGv3fjK3TYxltmrx3lK6/fjoqa9QPGMpXp5q285YV3EZ5eu/hGbvZdQhHF5LXoJvB+3HdeqzKNu0FbpjaTCUszWqgFP0IHjPuB1effy4M1PHoMyHZNShTFWFpB3ZeGnJabx/oBJ68ZH2pj+rwVEx8GAOH1dBJ85bVK7C+r8qxQXpulgghe9YC3VRBQ5v5bbli6ewZGMpWhFmkBboiquQyq3bt55Nxid7KjpuP0kpxUkx8GBOHi1peT/htv1fG/NRJC6RdqKvRtKaZDz1XCZ+/lOHHGPgwVQZkJOsws8rz+DbRLHsqirCrv/8C1/sOAs1+3F6usGd+08uF0631XlH8M0r72OHuR+JXo3Krf9F3jOvQs0HHh1JD33SWuS/+B5K96aKgQdThboLh1H63oso4PazjvoO0sl8VOugqbB+GMnZ/RnWHdNB1mcGnp4zmN+gjqfhann8w0OxYKhQCr0eBRdL8PPXl/FHPtskrrjt2X64K7pJfNjmzEctDq8+iXcO1aHvAC9cSi5DmcwbT7wdizFNEwb1mQ9XdFdWIwdKvPlKOGLEhwW2ZD7akKWxUfGus5i/ljs1GDMEVhz9+jje3F/XeP03YmEbNWPhedU1yLmkwqY1Odh+uZYrcELsjN545SZPWLtjtjEjg/BQ/Pul7ughljfSBTMfja4suf2kMKMYmz/Pxr4cVuCCG5cOwMxeTfaTNmc+arkr4OP8FXDsEC/kHC+DzsUHD/4nFqOaJdYasgnKUBcU5AHTlsfj1mjxYVHLmY82ZGls1k6Zj56hWPZaGMLE8lbLvozli/OQbVNGp5pbd2e4dSecHGWBHpgwNQQJAz0R4Mo9WqJDWqoah/9Sw2/OUPG3cuWZj+ZsW2f18v7EO69/j/PcapL5D8CNc4ajYt1qlE55CmGnv8FvJwu50zvgM/FpvDO7t/Aa7m+sPvEbSr/fhioV93cqYuA51g26P05zj3VQ5kOzD0UvfMPFbjLIrrkfAbcNgqu3K2q156Fb/SlKz5RyT1LC8/lX4BcpvKQ9SSfz4eoJX19fy5NrNs6cYdcdHhgyfICDBh5WyOVQxigx75kIjPdhBdXY9Jeq/a/q9CocSWTBjQdGzwnBOLYfGcpwKNnaJ7njxuu4JxYU4pdDHXWd2TaBPuJpndtvW/qGBkMHx9uuLujObcuHX+6PRSPZ96pD2qZs/EmXw23H7SfBsSG4/8VIjOL3kxps39Ex+8mJQ2zGAwn3hGAkCzhqSnH8hPVPip4UjFjuO/22qdCGLAmxhXZPJj4TA49uk6Pw5rt98bfJAejVTYGAQAVCYwMwdno0nn53EO4eyD/t6gq9Hov+/Raemj0CoeXJ2PzxavxZzMWYa/6NDSzwkPljwIyn8OLtxsCDyUH5T1v4wMOp3wwEvrYIftFe4mMdxPda+M8dD8WcxQi5dzgfeDDO3r3g/ch9cOdjrAKUH0zhy9ubw1S75B/ZjWSWUe8xBtfEWLt+dHDegZg82oWfrblchVx+rv3ok9TYx/bjcB8MCPLG0GHsJ1CHo2c0Vg/ggUP9MZB73sHdRdzPUcLybF1nzvDo8AjWBSNmd8co1izBoMMfR8qFYtJ2PoEYf52wnxguVSKfn2s/+hNqHGFVLj19EBfsg4GjhEPlyWTr+wkCAjCiH/edjhThYKFYRtpAix0btXwVi6xfGB6/JwB+Fg//MiiEBh9Xn9wPfSY+iCX/ehbTexsPNAqEjZiNp15/DY9N7dPk74iE+4jeUNy9DKGP3wQ3b7G4g8mGzUHQ+PDm7TrkfaDgfsdMXUWFMNPOHCP4qDiNvQfYKc8NQ8cOh79Q2mm5uXXUZqnF6VQtd10GRCX4oQe3+fsP8gWLr2sS1Thm7ajqH4jrh3A/0fQ8/HqaVSVITKg7osRZ66qhVrH/XeDvyxd0LE/uqmyYsGtnpGjBXQCRduLm3nH7SWpyKX/CCx/pjzBuP4kb6geW/DAcUuOk1ehDgeHjfLjTYDl+3dwBGZmu5rwKB/PYjDPGTFMiiC90AHo1zu74Aq+8uArpg68Hq5EdNusu9KlVo6BYwx2FmlPc/BSCxoRK5KQsh5OFttztxSGCD9WJQ0LWw38YhsR24qyHqLJSPLl7yNBC7WLr6EuRmMjeW4FrBgnvLO/jg2H8lbkWp85aCyrkGDXGjwtUarFjry0N766S2jruG4r0xfhwwTHc8eIlpIlFXCHK7ZqAcEZ4mJswm16OTGGOtIPKCnFLe7b3fqLBiYPCfjJ8iLif9PPBQJZoqSlFyhlr+wn3dUYG8e2ndLuLkEh1L22Sd04M2D39kGCmB5EksTYfTz2Hf6+/iN4PL8ETE8PBKjRKXfrgb3PioVq/HAuf/Be+OSblS5Ec1FwW5uShocJMO5P+1tSnYe/uS9yMDH3GXYM29zSTOm0xtuwRmtj3HeQL600nW0d/VoW97MSr9MVAY+MluT+G81fmtdh7stTqlZq8fzBuUnLH3+N52Nyqs6gG78znggBz02s5YFu3zdxlfAYHOQ0peP1ZLthil6/FxdjbrNrSDaHc32IP3YOEulQYTFrot5mVdSo2gm1P+sTPMG/ePJsmu4xnUFqEP/4U9pPYBL92zYbqz6iFoCHUF32NBxxuPxk8ks3UIvFYC1Uv3HOvncRFKlyg8utvWrHQFmqsuucoHjI3vXQZ4rmg3WSvSzH/WdzUYnfai3lYZuZ1/PRJ+51U87n9mdfTHY1OgayRrpnP/sJMb5eD7zd/nnFqTZdam4XGYVBsAu5btgRzBnhzUWglWMVFeTn3r3csbnnqJdzd141vyyhVdSm7oeOHHoiBx/COabEu+eBDdWQPjvFZjxG4ZkCna2baoLoGGSey8dbrWWKAEIx7rhOvmNtJ6ikNyrj/uw/zM+mx4oyhg3zALurKEjVIFQot8MJ41vAU1di6Xy2tlLK/vEmgVovTJ4W/l83vPm78vgawYwDj3PmTaO0mL4/vWmKTqIie4lwHqKpB1tFL+M+Si2KAEIyZ17fvfpJ2Us1n9pSj/Eyq8pwxiAtyWJJQd1BtkkkzL2oca3gKFGwvgtW23MQqvTFaD3BxoOr27pj82MO4RikeYDTqxtWtciWuefhp3CLVtovaYyhZvYvvYiubMhNeHVTXJe3goz7rAfQYPhwRnexksetTk6vVx0/h2VUFSFTVwSUkEC8t6oH2rWHS4Mhhli52wcgBjVtRy+P9cC07qparcKSFhs3KUUF8A8qyffmt6L3BuoUOxQ/mJktdStuglh3sjVVM4e6IZd83UYXT/EmgGip2JJA58ycSx2Vlna7qifHis9pL+M1L8cknn9g0PTSsfXfURleu/0jCqysLkMRtQ1n3ADzxcgTa9xiuxol9wn4ydFDjVn/ywX4YzqJ0Hfcc1gPSmuBgjBvO/a8rwW82j4/Dutom4DNzU1u6tVrAuo2a/SxuWja7hZabrKutmdfxk0nX3Hajr2t8sTMsxuQz++I2K/Eu62rb6PuZTPPHiE/qSO5hGDRmDCI9W8gmSYE+G5oPv0Al62UbOQMB06O75iBjqqN7cZLtt25DMXZ4J29myp0Mg6K9MevBOHz+ck80Oe61XYoau1lGxdcbffyqUFxiMpW6I5JdprEMwckWhsPyDMAtN7iC9d7YvF/IK0iDO8L4FHkl8ljb5DQNn0GKSgjHlP7ccrkGiaZtWropYKdaF1zKF08+3d0cdFReCXFxRkCsN6YtiMN7/4rCAL67bTs6rcIhlvbw90aMfxVKik0mjTsi+rAn1eLQsZZGJJVj2NRg/jd29rdCYZRg0mrKEDEIyq1q9x5NduM/CLfccw/uuc62JvFXDQs83n0DZZkGLvCYgsAFN8G1Ay/4pRt86NOxf3cWX0euHD2inbMA0sAGpqq/Wv1wMD5+NhZ/G+4Bjw74W5NPqoQqCE0J3nzhNOY3mlLxP7G+pexUaQspZWfEjg1CX24uZ1dhCy3/rx7h73XFsL7eGDaERXK12HFYxcaosnN1kR4XMoQrHpcebu1+9doVNLpy/XII3lrSG7eO8oR7B+wnKVxQwbcRVZXgw4XJeK7RlIJ14h0gdMdL0VLLFnkvJa5nwUpeEfYlWW+kSszrxl0k8C7qkMlvGNIhqi82BB4h4xGw4LYO7+4r2eBDd+oQjrMrdVkfjB5O14tto0XSKRsPfsVqHLkgzlsSFITJrNttuRp/HJXKQdUV/gHs/1qUV4pVTEo/JEQCnvH+fFVRTWIJDmZVCQ33QhXoxv7vaDkF2JzEZpyQ0M/X6ginkpX+E14w07DU7LT6mPgiR6TFmeM2/p4L1ThxXpy3yA2jJrBut7XYu6sYtla+kAbyAb4YxM9psW8frUFbVGtLUKI115nXAhZ4/PvthozHM3Pg3sGBByPN4EOfhX170vish//oMRjciduZ2sUFNfby7Rx8sei/JtmWRlMc/s5XW9Rg78mWWugbu92yQceKJZIOlcOd/53UQHWyFGw8r/qGtZ5+GBnPBUv8SK7sV8XhgpEODwSqy7D+63wh5a4Mwi0Jjpm+U13KsHl8ksgwhxzLXXBehSNsYDAXP8xfbZJtaTQZ2xfU4MixlnuyGLvdskHH9tGgY63nGYTxE4XTVNradGzJogySZXpk//42nnlmMRY/sxDPf5PU8pAITQMPO2Q8jCQZfOhO7cVhNhCULAIjh3b6zrUdjrXe5497/X3Q3+L5zwMJCUKKs/C4puWUstjtlo1d0TGD7165c9z3L4Qrro03NqyVY8hgL7iwYOmQmq9+cpF13E+/SluBs3uzsHRpGtZm1nG/Y3f8/eEwh6069B//tNmGpeamxZM7ZkwAe0g/JvZKiPdGnJX9ZNBIYT8pPqJuuS2HsdstypF2VigireGMAbdHCEPp11Ti52Wn8J/1xchS68Xq01pUqKtQyrLkDq5WWwJ9iclUYbyrYS3qTB/TVPA9UZo7gz9/SefvG8N69an2bscRfkBFC0wDD+V1CJh7HeQ1Jp9jOrUmk2Ij6dxYrl42dnzwBfZyK81t6F14enqsY6aqLbL1pmUW2HQrdtMbimmx5sU0/MwdVS3eOt/owiU88nYhf+K+4/kBmO1qvLGc+ZuYFexIxYIfjHu9tRvLWdN+Nz+rvzEbo2xyEzxdEVY8m4WDYuKj4Xb6THvfUr+Bi78X7pkfg5t6tty3hm4sZ8q2G4NZ1Orb1Gux/qlz+I2L0i3fOl90PgvPLy/kvqGLeAO5hhuPmf2uhbl4+6mc+rZUlm8sZ03XvqW+Pr8AX7xxCYktpOAa1v9VvLHcFSpfPR8q/n5CLQifgeCXbuIHLmssBWufXImdxkOybAjmvjPfzI0QRcdW4/KntnwgZ+TDCJvb2pOVdZLLfFSc2IsDfLTWA+PGdLbA4yrI1OAQv8N6YpDlyzlBtA+G8/tVNRJTWr6UMHa7laLGY5lwTIY572gKHxfExQfi7/Pj8PmrvW0KPMhVdkGNY3x60AMDLKcHBb18MIg/oNfg5GkbLrmN3W7JFZOHKDHv3UFYtkCJQbEu8DHpCewZqEDcNUrcywXad7c2SO1U+mLagxMRxtaNIhiDZt+MYZYCDwmQYOaDEEIIIZ2ZNBucEkIIIaTTouCDEEIIIXZF1S5EIlpuvGnJFTXcJcRBGRtJtlqTxqOEXE2U+SCEEEKIXVHmgxBCCCF2RZkPQgghhNgVBR+EEEIIsSsKPgghhBBiVxR8EEIIIcSuKPgghBBCiF1R8EEIIYQQu6LggxBCCCF2RcEHIYQQQuxKeoOM6UuRfWIfdhxKxuWictSwMpkbvP1D0XfkRFw7OBw+dJ99QgghxGFJK/jQZeL3//sWB3INYkFzLmET8cD9YxBKAQghhBDikCQUfOiRvvk9fJtYDnhEY8Kt0zAiKgBuXJChryxBxr6f8MPey6iBDH1mPI05g93F1xFCCCHEkUiozcdFpCZzgQcn9oZZGBcrBB6M3C0AsRNnYkIPtmRAXkEhX04IIYQQxyOh4KMGNXwDD8BF7iLMNOINL29hTuGmEGYIIYQQ4nAkFHz0RGQvGT939sCfyNTxs/X0eftx4Cyb80fv6BC+jBBCCCGOR2INTk9j/Uc/gq99cVFi8ORpGNfXG0VHN+PX3enQGmToNuEfeGBcKKi9KSGEEOKYJNfVVl96Afs3/oLd6VqY9nmRuYUi4dY7MamPDwUehBBCiAOT3CBjco8ghAR6wkWogalnqNGhOL8EVeIyIYQQQhyTdMf5YNUuN8/CDd1y8cePm3CiQGiN6tHnFjwwawgCKf1BCCGEOCQJBR86HF/zHjamcYGHxwDcPm8GBtYPZapD5u//h28P5MIAGSJuXIC5I/3FxwghhBDiSKRT7VJ0HEdY4AE3DJg61STwYDwROfkOTBTH+cg6dgr5fDkhhBBCHI10go/8fOTyMz0QHW1u9FJ/RPdSCrMFhSgS5gghhBDiYKQTfLi5wY2fKUJJMT/TTFWl2Nw0KBCBwhwhhBBCHIx0go+ecRjgwWZUOLBuHQ5klaBSzz/C39sl68A6/HhYwy3J0G1QX4QKDxFCCCHEwUiqt4subTO+/D4RJRZvaiuDd99puO926u1CCCGEOCoJDjKWjRP7duBQSh5U2kphoDEXDwSF9cbQa8YhIdYfrvwzCSGEEOKIJBd8EEIIIaRzk9wIp4QQQgjp3Cj4IIQQQohdUfBBCCGEELui4IMQQgghdkXBByGEEELsioIPQgghhNgVBR+EEEIIsSsKPgghhBBiVxR8EEIIIcSuKPgghBBCiF1R8EEIIYQQu6LggxBCCCF2RcFHV2XQ4mhxNo5W6MUC0t702b9jxYpNuFgtFhDSxenVifj6X1/jmFYsIF0WBR+OpOQo4k9sQXzKWWSIRVemBF+m7sHcS0mYe+4A1laIxaTdsMDj32+vx7lzv+PH/XliKSFdWSVSf/0e+7L24ZNXVlMA0sVJ8Jb61ShM2oEte5JxuagcNVyJi0cQwgaMxdSJ8Qh2FZ7VJbHgIysfUMRgQ98+iBKLW01/Ec8nn8YWcXF2xFS8FCAuWFJ5GZ9fzsAvhhD8p3fslX92V6A9htWvfIKDpTJEzngBi6aGQy4+1Jwe+rN/oXTrX6hMK0CdgStS+MBl0BT43H4d3PzMvDJnK/Jf2cC90orwGQh+6SY0212OrcblTw+JCxaMfBhhc4eKC1dZdR50W3+Cbt9Z1JRWcQUyOClj4T59DnyHh1q4esqB5rVXUJYtLpoVDq8lL8G3u7hY7xiK53/KnSatGQn/VXPhIS5dXdWoPrIVpTv3ofpCKfiDuYcSLqOnw2/GcLhaOF6Wr54PVQs/A7eHVyGwyc+geutrKNxgdcVCPmMJQm5qtmIF+mxseed1bMg0QBY5Ay8smopwyzsH6cSklfnQ5+HQN+/jo58PI7OoCjJvX/j6crt4eREyD/+Mj95fj9M68bnkysm7YXaQJ7zghECPWNzpJ5ZbU56HD7SlyDLUigXEPC32f/M5F3gAPqP+gUetBR56NSrWvor8935ARaoYeDBVpag5/AOKX3wXmuyuWy1We3EHCl9aBvXWJDHwYAyoK0hF+RfLkLf6GLfUhVVfhPaDl1D4xVZUGQMPprwANTu+4NbdapRLLbsgD8fUR/+BUT7clszcgE82plsPokmnJaHMhx7pm9/Dt4nlXOTeB9Puvx3DxDSHvvQC/ly7BgdyuWg54kYsmMtdefCPdDHtlfm4Elfzsx2Idv9HeO6rkzD4jMK8JXMx1Ft8wAzDvv8i75tk7mI+BG73Pwi/QRGQuVbDcH4PSj79AdVcAAPlVAS9cgsUwksE9ZmPK7gCN2Y+LGVGJCMdqsXvoFzFHaT6zYD/nePhFuwOVBSiYsN/odrF/RYhg2Lu2wga6Sm8pF5D5sPc1bt1xsyHpcyIdFT+tBjFv3MryKcfvO6/E169g7k1UgF98gYUfbYLBhaZDZmL0HkjufLGjJkPq1kKM+ozH23MjunTf8Lyt7ehAEpMeXYpbo+h9EdXI53Mh+oI/mKBBxdWjP7brPrAg5H7RGPyHRPRg5s3ZB3CMetZP0KuDn0KNv/MBR7coX7QbbOsBh6M7Nr74Dc+AT6LX0bgcBZ4sFJXyHpNRNB94+DEFgt2oTyFzXQ1MfBbMAOK8Y8h5PGb4M4FHmx9OLkHw2POY/CJYc8xoGrfkS575ex2ywJ4JYxHwMuPw7cfF3iw87fcHfLBcxB0O7+CgOP7+ABOauQxU3DbKBY2F+CPX/aiSCgmXYhkgg/NuVRcYjNB8YiPMBMF+/dD/wg2o8KpM1l8kaO5lLdHaDCacVkssUxbdFh47rkLFnZMA4pL0/HK2e24hj3vxG+YdPYEdljsvaLBtynseU2nv/Ct2QanTZ7Psh5MVTpmNHq9OFn5myorLuE/abswKUl8btJ23JV2CpvLKvg2PZ2FLvEv7OazFTdgyogWIg+eNzznPARvM5XeTn16i1mJctR20QbBTuE3IWhO/2ZX7dxBAop+4tV6eQW6bEWgPBy+D82Bu5mfmrxPP3G9SfX344mh029GL27OcG4H9retBT1xQJIJPiqrxCZezs7CFV8zvugW5svPaYqK4YjH4x6uYoK8sqzF3ipFNcJfqHB15w61TdXhYt4BTL9wFj9W1KCML6tFfkUOnpRU7xUDLhcdwfSzp/CZrhxqKBDtokAIF3Ik6y5h8fm/8GieupMEICoc2Xecb4MQPnoU2pxFllvaDwiPO04QKyweRyUkaBSuHcRmCrDzUJdM73VpDrUHK9zEmm+NFuwC0+G4e4Hf12qquFOVdblVrAoKiFOYqdGvzsCivFLUuHbDe71vwNHBU3G4T19MZ5c6dVp8UpBv5oTui7v7TkUS91x+6hMjfBeLmjw/IkQoZm0+jGWmU1SY8LiJGm0qnsguRL6TBx7sOQH74yfil/4TsT1+MjaFBXNBSC0O5B3Dl9pO0GxQl4Iz59hMdwyJb4eGAjn5YnVCOOSh/Aypp4c+L1eYDQuBizBHTNTl5Qm/H1kYXJR8kQR5om+/3vxceVIK0vk50lVIJvgIDFQKacKCi7hkoUeLj7eQ+XBYCk9Es/9rq1Fanys2Vm8cxm/1NSbc4wahHXAfhZm/mbURdovGt32GYKKHK3/wdXOPwmNK4bnF5Wpc/WYxOmzOzQI7H18TOhxP+LubnCTkiAgeitf9WXqgEp8X5bVT9iMbm5bPw7x5tkwfYX979pzKykIa+18WhYhwvqQN9KjYvVM4ecSMhqfFWOYQVPPn4zI/PYGcl15BwbdbUZ5nw6hm2RtQaHztgqeQ+9LbKNqwF1VqS9V2ElK0F2WJLGD1gPuIeKtX+JWfGtfPfOQ8+xLyVn4LzYk8G6pqslH2ivG1C5Cz+CUUfLQB2gx1Q68SySpC2a5Efs7p2hFwt5KF0294pX79XH5qMfLe/gjqvRnQt/QzOPRpw+ueeBZ5r6xEydYTqG7lgHr+vfpw4TqnOAOXJNg2hXQcyQQf8ug49HVjcxew86cDuGz6I9ZXIj9lB9bvvCAWOChnd3TnDwQ6ZBt7DlYWYS8/X4RdauMfXYEiftYDPRp1cxA5K/FOTBz6NKkMD3XhVyBQVXb1g4/qfPxRzg7TQbg1sGlvBEaGwV7C4CJVlVq0SysefR5yc8T5lnSPQIS5r3WFVPmXweequgWZqSZrHcOxb6DaxTcegcfM66yMEWKqCnVFOajZuwGqZYtQ8Hu27SdJQzlqiy6gauu3KHrxZRRLefQnfTY0n/+AGhZ7xN8B3/6212/VlRbBkMoFLquWIe+d31Ftc5xlQJ2qCDVJW1H61ovI+1rKXXz1qN76OUrPcd9QFg+f6f1tr34pV8FwIQm6b99C/stf295Nt6oUhpxUVGxYhcJF76C0Nd3DQ0OF4APFKCnhZ0gXIalBxnSnf8EnP5+EkIV3gYevB/dvDco1wmBj9bpNxIKHx7T5IG9/Ffjl3E4sKXfCXT1vwvP+XMhRsB/X56iFhz3i8GfvaO7vysWbJ49jTV0Q3h4wAjcaj68tdXc1Po4QfDg4AWOFUvMqzuKes+k4CU882+c63O0ullvS2q62quMYfjGXOyU6I8TFhfsUM2prcIEfN8SG7ytxOVtexXLWBXHYQ/jwoWE2BgzN1WVvRcEbG6A3yCCfsRjKm8JtOnnUVWhQk5kI7dqfUJnPdiAucHl2CfyjW/4mtdo8VKcehvaHLUL3Xu6k5fvmI/Cypc2sXWlRvvpVqA5xX9JnJPxfngsPW7+jvgL6nExU7FqL0v1C42nZlGcRclt0y+u3WouaS6nQbf4BujP8CoLivjcRNFpyK4gLXFcj/9NDXODpA7eHX0ZgS12u6lXDkHcJlYc3Q7PljBC4xt+H0EdGm2nwa0oPgyYH1Ym7oPlpv9C9VzkFgUtug5tNO8ExrJ73CQ5yc6O4/6Uyth3peJJq8+HZ/1Y8Ou82jIgMgocLCzo00JTVwi0oEoMnzMbsMULlpUzZ9qvLq8MdEfweWQe1gaU2KrBXzQUezgG4kZ38y/OwlxXrq6Fme7/cE+Y6/jiEulou8GBqkV9ThQvmJhqwrJFGgceUhQiyMfBgnNx94dp3IgJffgTufDOhAlQc5iuCWuTsHQq34bcg+Nk7hKoxQxLKj0otB24aeAyB7zP32B54MKwLakRfeN/7MgLGCe2oDHsOtzCSqcjVGy4xw+H3+LMNXXwPHBWqxSTENPBQ3PcMAmwOPBhXyEJj4HnL41DeIXbTTTpgQzddOWS+EXCfeC9CHjF2D9+DCtt+eqQLk1yDU9fgeNx03wIsemEpli7lppeew1ML7sOMcbGQl7OrDiC6Z0/+f0cU7CqkGLKqy7kgowAHuf8U3j0wz4flBtT4Q10B1FSC77jKPVeybcVsxrIaZhqoNpocO+vBOMvFKDGvgDvtt17txc31gYds/CMIui22hStOC+T94TZQmK2raGW3p6C+UIjtVVr92o6kV0NXH3j0g8/jD8JLeaVRuRzuceIKKq+wvWqKFwTFAHEFSaqLrx76xIbAw3XO4wgcrbS9uqUJed8BYuaudd10nfrHiYPhXUn33u4IdvyDHWkFx+ntokvBiTPcdYqsD/rFtVRHIF3G7rbJVTpo1fnYwh0iJnsHI8YvlO99sludi6KKMpzk5s13s73KDHrbujkbe/agDBftch7TYf9H5hqWmptexRZb24bYKDQ0TAgWcotaPWASCzwK3/61PuMRbHZsC1vpGg78/KhTrVFp8tor/wbtigUe37wOdX3G4xGz46K0hqFK/CO5v7G1J+jaSvG18ta/tmOwwOMbFHzekPEIGm97xsysSu53wM/I4dSan4GuSgzmuBfZuoly8sT2aV7wasc2WET6HCP4qL6MAz/9BhZ7+I+4BgMcN/ZoOClXlWK9ppi7XAjCeD9XrjwUU9hlQ3kefqsSmrOZ7WZ7tbi4Ce08uJMB2w4tcg/CGP4ApMNXeZdb7FrcdlnIsjXVK+uJ8HboDdtIjwgIGflUnG9Fn8GmgccVZzxEddm7oEticx5wT+jHl9nKkPgnKrifJBtd1GOo2LXaHH02dn20HC8ufw/rEgs6rvqhWeDRloyHiPvuZTv4FQSnaxMgNtG2jTYRZXv4FQSX4UNNem81pUf2ro+w/MXleG9dIgo6bgU1CzzakvEQaKH7c48QfMQMh4eVn0FjelTv2iFUtXpcCw8bf3q6zEwh+AiMQo8uec+MrkuCd7UVVeugKS3GxTOHsW/vaRTUcOeMbhPwjwfGIbSNx5+rqjYbS5OS8LPCE4O4vzHVawD+jIkAq53NyP0LM/J1iJIrkKGvan632avZ4LT2Ml47dRLruF+Lwq0nPo6MxSA3oZuvJXkF+zE9R80dkJwQ4RWJ57tFY5ingj/g1+grkKnLwV9F2VD5X4dFLd1VV/KKsOOdF7HuPKCc9jxevaXlu980BB7cb/u6RxA4xfIVq5NXgDj8ujlCo7+qvzZCsy0Ztdz7OY18GCFzh9oQyAgNDcv/WAPt3svcSazlhq6qXSvw/Hf8oCYcJaY9/yps+HNbxzTwcOsP74Vz4OFj4a+RuUPmKwy/bgnfIJfdPfj7bahScSuoFQ1W+Qa5J/+A+oe9MLCza+QMBD9zE1wtHYdUu7Di+e/4buaMrb+H1jENPNzgesdC+A/xER9rSgYnH1/riTC+Ue1JaNf8gIrL3B8pi4TX4mfg21KWiW/IexZlG7+HLpldYvi0oqGrDgdXLcLq4wbut/8sXjcOCU+6BEkFH/m7P8aqneZqzF2gHDwds6cNRKAjBx68YnySfAgfildDU8NvwJtB4lmlLAWzzmeIBy0PPB07HveZpiLbEnzUP9YCi71ZDEjP3Y85+VqxIWkTvoPMDDRWiT2Z+/CUusr8a3gNPX8cXdGOd/Aiiz48xuGxd/6OAS38Vm25rblRoxukWb0tvgzOCXcjaO5ouJj5fOu3RFfAZeqjCLzFevZFn7IWi1furB/oL3Lmciye3M4jodXfPM8GzW6S18Jt8f0T4PvkXPNZlBY+1ylmKgLm3wI3a+dWfQrWLl6JnQ0rCMsXT0b7rqGGm+e1rOlN8lp4LXcM8Hx0Pvxim/+RVn+zMn8o7n7S9uxL0Q688+I6nO+oAJZImnSrXVw84BsUif7XTsPcx5/BP2d0hsCD8UBI/VFSrHIx8grB1PpUAvc8c2N8XDUyxHS7Br/0jMEsdwUCbTq6uGFs5Hj8Ft0H93h6IMLZ+CInblt6YEJgH6zuM6lTBB5M0HU3ge9IUb4P2/ba81ZZ3JWtf3e4jJkB/2XvodtD5gMP8xRwCoqG4iYuYHlzBZQtBB6MvO8sPDDB0lW2RHn4QxY3Bl7zl6HbGw+1qvrGyScILvE3wee5N9FtUQuBByPvi1kPTIBDrSGFD2TR8fC8+zmErFhkNvAwS+YB5+5xcJ8xH8HvvYEgm6t99Ej54zcu8ODeYtBNmECBR5cj3WoXQhxQ0a4VWPLdORhkg3DfW4/gGhuP4a1SrYXe4A65taErLWDVD7UyXytVODY6thrzPmGjM3BB5ML3MKevUCwN1TBoDHBuoSrGLFaNUCGD3LvNK6h+/AqPCQvxnqRWEKumq4CTr3errz5rtRrUubdQhWMDffYmvPHqr8hGOGYsfRlT27sNFpE8x+ntQogDCBp/J26NlAGGk/j2012t7vliE1fvKwo8GDYeSFsDj+riM/hp2xF+XtZ7Bm6QVODBuLbYBsQiNh5IWwOP6mKc+Wkb+DUk640ZkltBbGyO1gcejLN32wMP6NOx8RMWeMgQOWMuJlPg0SVR5oOQ9qblrnpf4a56S7mD65Qn8ejtsXyDYkeX/P2L+C5Ri6JSoQWPImwiHn5yNgZ0hj+uPSR/jxe/S4S2qFRo46QIw8SHn8RsWkEN9GokfvMvfHawFLLIGXhh0VS0sec0cVCU+SCkvXkPxT1PzECkzIDMbe/h4x154gOOrbq8CEU6GfyjB+GmfyzBWy9Q4NFIdTmKinSQ+Udj0E3/wJK3XqDAo5FKJH8nBh4hE/DIoxR4dGWU+SCkg1Rf3ISV3zvjrqfoIEsIoy/Yjy+/ysI18+dQ4NrFUfBBCCGEELuiahdCCCGE2BUFH4QQQgixKwo+CCGEEGJHwP8Dicx5R6kNInwAAAAASUVORK5CYII=;clipPath=inset(13.59% 1.33% 0% 12.33%);" parent="1" vertex="1">
          <mxGeometry x="22" y="75" width="543" height="333.34749034749035" as="geometry" />
        </mxCell>
        <mxCell id="Q2kvJ_mDKJeGvRw_KFXL-4" value="" style="endArrow=none;html=1;rounded=0;entryX=0.409;entryY=0.075;entryDx=0;entryDy=0;entryPerimeter=0;" parent="1" edge="1">
          <mxGeometry width="50" height="50" relative="1" as="geometry">
            <mxPoint x="598" y="98" as="sourcePoint" />
            <mxPoint x="246.99699999999999" y="98.00106177606176" as="targetPoint" />
          </mxGeometry>
        </mxCell>
        <mxCell id="Q2kvJ_mDKJeGvRw_KFXL-5" value="&lt;span style=&quot;font-size: 20px;&quot;&gt;game variable loop&lt;/span&gt;" style="text;html=1;align=center;verticalAlign=middle;resizable=0;points=[];autosize=1;strokeColor=none;fillColor=none;" parent="1" vertex="1">
          <mxGeometry x="597" y="80" width="187" height="36" as="geometry" />
        </mxCell>
        <mxCell id="Q2kvJ_mDKJeGvRw_KFXL-6" value="" style="endArrow=none;html=1;rounded=0;entryX=0.669;entryY=0.345;entryDx=0;entryDy=0;entryPerimeter=0;strokeWidth=1;flowAnimation=0;" parent="1" target="Q2kvJ_mDKJeGvRw_KFXL-3" edge="1">
          <mxGeometry width="50" height="50" relative="1" as="geometry">
            <mxPoint x="618" y="190" as="sourcePoint" />
            <mxPoint x="437" y="300" as="targetPoint" />
          </mxGeometry>
        </mxCell>
        <mxCell id="Q2kvJ_mDKJeGvRw_KFXL-8" value="&lt;span style=&quot;font-size: 20px;&quot;&gt;declaring the dimensions&lt;/span&gt;&lt;div&gt;&lt;span style=&quot;font-size: 20px;&quot;&gt;&amp;nbsp;of the window&lt;/span&gt;&lt;/div&gt;" style="text;html=1;align=center;verticalAlign=middle;resizable=0;points=[];autosize=1;strokeColor=none;fillColor=none;" parent="1" vertex="1">
          <mxGeometry x="622" y="162" width="239" height="60" as="geometry" />
        </mxCell>
        <mxCell id="Q2kvJ_mDKJeGvRw_KFXL-11" value="" style="endArrow=none;html=1;rounded=0;entryX=0.669;entryY=0.345;entryDx=0;entryDy=0;entryPerimeter=0;" parent="1" edge="1">
          <mxGeometry width="50" height="50" relative="1" as="geometry">
            <mxPoint x="627" y="298" as="sourcePoint" />
            <mxPoint x="559" y="298" as="targetPoint" />
          </mxGeometry>
        </mxCell>
      </root>
    </mxGraphModel>
  </diagram>
</mxfile>
